PathFileType	4	(X/Y/Z)	\\147.46.242.158\로컬 디스크 (e)\MOCAP Data\Iguana Capture\iguana\Project 2\Capture day 7\Session 2\Take06.trc
DataRate	CameraRate	NumFrames	NumMarkers	Units	OrigDataRate	OrigDataStartFrame	OrigNumFrames
120.0	120.0	13	23	mm	120.0	1	14620
Frame#	Time	ana:head1			ana:head2			ana:bone1			ana:bone2			ana:bone3			ana:tail1			ana:tail2			ana:tail3			ana:tail4			ana:Rforefoot1			ana:Rforefoot2			ana:Rforefoot3			ana:Lforefoot1			ana:Lforefoot2			ana:Lforefoot3			ana:RhindLeg1			ana:RhindLeg2			ana:RhindLeg3			ana:RhindLeg4			ana:LhindLeg1			ana:LhindLeg2			ana:LhindLeg3			ana:LhindLeg4			
		X1	Y1	Z1	X2	Y2	Z2	X3	Y3	Z3	X4	Y4	Z4	X5	Y5	Z5	X6	Y6	Z6	X7	Y7	Z7	X8	Y8	Z8	X9	Y9	Z9	X10	Y10	Z10	X11	Y11	Z11	X12	Y12	Z12	X13	Y13	Z13	X14	Y14	Z14	X15	Y15	Z15	X16	Y16	Z16	X17	Y17	Z17	X18	Y18	Z18	X19	Y19	Z19	X20	Y20	Z20	X21	Y21	Z21	X22	Y22	Z22	X23	Y23	Z23	

9463	78.850	85.25144	-365.94977	64.93955	74.90752	-368.33777	64.71014	51.62350	-374.34012	53.28186	28.03755	-379.79333	40.83827	-2.17798	-388.09991	30.58192	-34.34115	-387.52213	17.60286	-62.22355	-368.21982	10.71717	-81.53975	-327.59216	8.99412	-93.75236	-289.37949	10.19175	66.84883	-382.22061	33.93643	65.48853	-390.34888	20.07528	75.72787	-389.46140	13.71124	52.13008	-361.79669	35.48184	44.32168	-359.46347	26.39538	58.19506	-366.88867	8.78992	-1.22893	-396.10336	22.17081	6.88116	-413.71768	20.71035	-4.12968	-422.87793	3.74602	7.20984	-426.90192	5.75265	-1.02427	-377.42615	20.80033	5.95586	-361.34573	24.86701	-0.64209	-349.77954	5.71553	10.12535	-341.53290	7.19658	
9464	78.858	85.27733	-365.91089	64.91829	74.88412	-368.23157	64.70273	51.66793	-374.31876	53.19389	27.99603	-379.83377	40.88206	-2.22427	-387.90289	30.49906	-34.30149	-387.56741	17.56556	-62.18107	-368.19803	10.60010	-81.53975	-327.59216	8.99412	-93.82450	-289.17850	10.17823	66.39748	-382.30786	33.99548	66.20705	-390.32297	20.06391	75.60996	-389.51520	13.75820	53.24555	-361.06107	35.76171	46.87273	-359.77719	24.05333	58.19506	-366.88867	8.78992	-1.03758	-396.18008	22.62410	6.89096	-413.70969	20.71431	-4.19016	-422.89993	3.80660	7.20449	-426.89148	5.76003	-1.02705	-377.45865	20.73868	5.99238	-361.34384	24.80995	-0.67749	-349.79727	5.73969	9.99692	-341.58597	7.24610	
9465	78.867	85.27953	-365.88562	64.92745	74.85161	-368.20575	64.72716	51.56784	-374.29211	53.28049	27.99842	-379.79672	40.91167	-2.27572	-387.71222	30.41332	-34.18074	-387.54111	17.38636	-63.08564	-368.29224	11.33684	-81.53296	-327.57150	9.08533	-93.79192	-289.37158	10.16105	66.85851	-382.18890	33.94234	66.20730	-390.36536	19.96972	75.68151	-389.50177	13.71714	53.24554	-361.06107	35.76173	46.97393	-359.86990	23.95722	58.19506	-366.88867	8.78992	-0.82910	-396.11697	22.56445	6.86520	-413.74661	20.69188	-4.10399	-422.82645	3.70946	7.22092	-426.89755	5.72922	-0.94443	-377.39713	20.75355	6.02965	-361.35172	24.81985	-0.61064	-349.76306	5.69374	10.04062	-341.55978	7.23653	
9466	78.875	85.27603	-365.86450	64.92698	74.85826	-368.25015	64.75196	51.62925	-374.28986	53.23009	27.93320	-379.88635	41.05560	-2.33815	-387.53613	30.32170	-33.48355	-387.24771	17.00459	-63.07220	-368.35751	11.29738	-81.57105	-327.57520	9.07389	-93.77203	-289.36484	10.18179	66.79037	-382.18030	33.98088	65.77608	-390.39197	19.97667	75.70295	-389.49838	13.72437	52.65436	-361.46091	35.58627	46.15086	-359.72717	24.69933	58.10172	-366.97702	8.78518	-0.50872	-396.06430	22.39837	6.88617	-413.72653	20.70648	-4.13795	-422.86771	3.75337	7.21344	-426.89236	5.74235	-0.90154	-377.50192	20.52359	6.23047	-361.19107	24.52589	-0.66245	-349.78082	5.72804	10.06188	-341.53519	7.22135	
9467	78.883	85.27684	-365.83270	64.92130	74.85371	-368.23563	64.75754	51.63074	-374.27994	53.22091	27.93923	-379.87912	41.07444	-2.39831	-387.35742	30.23138	-33.19373	-387.15405	16.78518	-63.10412	-368.36020	11.31778	-81.59967	-327.57025	9.10626	-93.76599	-289.38550	10.17869	66.81310	-382.15805	33.99259	65.70917	-390.40482	19.95601	75.71365	-389.50262	13.72317	52.60589	-361.50156	35.55475	46.38758	-359.76837	24.46798	58.09052	-366.98761	8.78461	-0.34261	-396.04968	22.36602	6.88769	-413.72937	20.70821	-4.14054	-422.87347	3.75909	7.21065	-426.89017	5.74315	-0.86460	-377.53760	20.43163	6.36178	-361.14825	24.40311	-0.66243	-349.78421	5.72767	10.13396	-341.52576	7.18606	
9468	78.892	85.27592	-365.80072	64.91414	74.85206	-368.22656	64.76026	51.62873	-374.27002	53.21602	27.77137	-379.92429	41.21102	-2.46256	-387.18457	30.13898	-32.96659	-387.08514	16.60911	-62.99380	-368.33347	11.23430	-81.63144	-327.56369	9.14022	-93.75707	-289.40762	10.17923	66.82883	-382.14444	33.99217	65.62197	-390.41449	19.94373	75.72150	-389.50073	13.72256	52.51799	-361.57993	35.48841	46.31429	-359.76691	24.52380	58.10172	-366.97702	8.78518	-0.23110	-396.03824	22.31099	6.88552	-413.73151	20.70956	-4.13976	-422.87637	3.75946	7.20744	-426.88724	5.74354	-0.87029	-377.55850	20.40791	6.48008	-361.10587	24.29085	-0.65938	-349.78580	5.72423	10.26934	-341.51904	7.11704	
9469	78.900	85.27423	-365.76288	64.90041	74.85181	-368.21417	64.75775	51.63322	-374.26230	53.20230	27.45358	-380.02225	41.45536	-2.53051	-387.01749	30.04477	-32.82375	-387.05002	16.49497	-62.74774	-368.28339	11.04863	-81.66048	-327.56061	9.16569	-93.75499	-289.41119	10.18450	66.78059	-382.15155	33.99461	65.57238	-390.41776	19.93961	75.71281	-389.50247	13.72824	52.43712	-361.64981	35.43317	46.09727	-359.73984	24.71433	58.12864	-366.95154	8.78655	-0.17020	-396.03708	22.27262	6.88457	-413.73129	20.71147	-4.14285	-422.87918	3.76262	7.20410	-426.88516	5.74671	-0.92027	-377.56512	20.45387	6.52243	-361.10892	24.26987	-0.65718	-349.78708	5.72170	10.37457	-341.51913	7.06373	
9470	78.908	85.27093	-365.73206	64.87376	74.85215	-368.19522	64.74934	51.62769	-374.25317	53.19577	26.98481	-380.18192	41.81846	-2.60183	-386.85593	29.94901	-32.77011	-387.05035	16.43701	-62.48199	-368.22391	10.84941	-81.68021	-327.55862	9.19297	-93.76604	-289.38812	10.19519	66.70777	-382.16806	33.99362	65.56944	-390.42212	19.94275	75.70924	-389.50381	13.72843	52.40133	-361.68796	35.39385	45.79172	-359.70020	24.99060	58.15738	-366.92432	8.78801	-0.16008	-396.04184	22.25806	6.87933	-413.73199	20.71261	-4.14150	-422.87631	3.76082	7.20135	-426.88315	5.74916	-0.95883	-377.54639	20.52724	6.57438	-361.09769	24.22774	-0.62713	-349.76224	5.72803	10.44513	-341.52267	7.02831	
9471	78.917	85.27309	-365.71170	64.84065	74.85247	-368.17529	64.74966	51.62540	-374.24268	53.18692	26.61044	-380.27899	42.10877	-2.67614	-386.69977	29.85195	-32.75262	-387.04785	16.41873	-62.27895	-368.18433	10.70099	-81.81837	-327.60089	9.31693	-93.77926	-289.36288	10.20066	66.61676	-382.18832	33.99290	65.56815	-390.42770	19.95142	75.69651	-389.50800	13.73227	52.36497	-361.72861	35.35096	45.43526	-359.64813	25.32006	58.19507	-366.88867	8.78992	-0.14731	-396.04950	22.23872	6.87384	-413.72943	20.71292	-4.13959	-422.87286	3.75822	7.20138	-426.88351	5.75190	-1.02997	-377.51996	20.64681	6.57671	-361.09259	24.21619	-0.60716	-349.74399	5.73350	10.44490	-341.52811	7.02926	
9472	78.925	85.27745	-365.69940	64.80451	74.84366	-368.15677	64.74003	51.62551	-374.23175	53.17794	26.41143	-380.33878	42.28207	-2.75309	-386.54892	29.75388	-32.73908	-387.04968	16.41043	-62.15208	-368.16483	10.61853	-82.03813	-327.68253	9.50714	-93.78858	-289.33929	10.20882	66.52468	-382.20444	33.99663	65.56892	-390.43320	19.96017	75.69318	-389.50955	13.73072	52.29515	-361.78360	35.31349	45.09483	-359.60046	25.63618	58.19507	-366.88867	8.78992	-0.14789	-396.05399	22.23846	6.87251	-413.72723	20.71316	-4.13633	-422.86673	3.75284	7.20316	-426.88348	5.75308	-1.04642	-377.49664	20.69651	6.54527	-361.09418	24.22890	-0.59387	-349.72577	5.74349	10.37012	-341.53351	7.06872	
9473	78.933	85.27929	-365.69540	64.77290	74.83011	-368.13571	64.73333	51.62435	-374.22180	53.17303	26.49777	-380.28497	42.22352	-2.83233	-386.40314	29.65505	-32.73270	-387.05334	16.40620	-62.11719	-368.16873	10.60316	-82.34651	-327.79541	9.76414	-93.80402	-289.30478	10.21218	66.45094	-382.20569	34.00615	65.57272	-390.43652	19.96659	75.69589	-389.51007	13.72664	52.29549	-361.78351	35.30972	44.88535	-359.57214	25.83098	58.19507	-366.88867	8.78992	-0.14697	-396.06207	22.23160	6.87336	-413.72427	20.71128	-4.13370	-422.86060	3.74831	7.20556	-426.88577	5.75501	-0.99383	-377.47855	20.66362	6.50863	-361.09406	24.24009	-0.59312	-349.71820	5.75204	10.26511	-341.53912	7.12399	
9474	78.942	85.27581	-365.68408	64.74106	74.81106	-368.11395	64.72840	51.62819	-374.21338	53.16695	26.82287	-380.14240	41.95951	-2.91349	-386.26233	29.55572	-32.72842	-387.05280	16.39516	-62.11040	-368.17288	10.61148	-82.69275	-327.92462	10.05419	-93.80314	-289.28693	10.20600	66.40497	-382.19534	34.01801	65.57260	-390.43860	19.97533	75.69332	-389.50681	13.72437	52.30179	-361.77936	35.29556	44.94988	-359.58539	25.77480	58.19508	-366.88867	8.78992	-0.14479	-396.07013	22.22326	6.87351	-413.72345	20.71052	-4.13366	-422.86414	3.75107	7.20720	-426.88797	5.75531	-0.97970	-377.48886	20.63354	6.39935	-361.12976	24.33773	-0.60682	-349.72357	5.75319	10.14152	-341.54163	7.18655	
9475	78.950	85.26374	-365.66251	64.71728	74.78837	-368.08795	64.73094	51.63362	-374.20648	53.15919	27.32566	-379.93646	41.54087	-2.99622	-386.12631	29.45617	-32.73160	-387.04932	16.38520	-62.10466	-368.17715	10.61935	-83.00231	-328.03772	10.31122	-93.80508	-289.26410	10.19976	66.38490	-382.17630	34.02871	65.57401	-390.43588	19.97431	75.70193	-389.50238	13.71970	52.31183	-361.77576	35.27872	45.04452	-359.60297	25.68609	58.19508	-366.88864	8.78992	-0.14097	-396.08115	22.20785	6.87869	-413.72522	20.70918	-4.13419	-422.86902	3.75629	7.20742	-426.88995	5.75672	-0.97860	-377.50632	20.61108	6.33895	-361.17108	24.41423	-0.62415	-349.73941	5.74564	10.06983	-341.54010	7.22464	
